<svg class="main-svg" xmlns="http://www.w3.org/2000/svg" xmlns:xlink="http://www.w3.org/1999/xlink" width="1000" height="450" style="background: rgb(255, 255, 255);"><defs id="defs-bd56de"><g class="clips"><clipPath id="clipbd56dexyplot" class="plotclip"><rect width="840" height="270"></rect></clipPath><clipPath class="axesclip" id="clipbd56dex"><rect x="80" y="0" width="840" height="450"></rect></clipPath><clipPath class="axesclip" id="clipbd56dey"><rect x="0" y="100" width="1000" height="270"></rect></clipPath><clipPath class="axesclip" id="clipbd56dexy"><rect x="80" y="100" width="840" height="270"></rect></clipPath></g><g class="gradients"></g></defs><g class="bglayer"></g><g class="draglayer cursor-crosshair"><g class="xy"><rect class="nsewdrag drag" data-subplot="xy" x="80" y="100" width="840" height="270" style="fill: transparent; stroke-width: 0; pointer-events: all;"></rect><rect class="nwdrag drag cursor-nw-resize" data-subplot="xy" x="60" y="80" width="20" height="20" style="fill: transparent; stroke-width: 0; pointer-events: all;"></rect><rect class="nedrag drag cursor-ne-resize" data-subplot="xy" x="920" y="80" width="20" height="20" style="fill: transparent; stroke-width: 0; pointer-events: all;"></rect><rect class="swdrag drag cursor-sw-resize" data-subplot="xy" x="60" y="370" width="20" height="20" style="fill: transparent; stroke-width: 0; pointer-events: all;"></rect><rect class="sedrag drag cursor-se-resize" data-subplot="xy" x="920" y="370" width="20" height="20" style="fill: transparent; stroke-width: 0; pointer-events: all;"></rect><rect class="ewdrag drag cursor-ew-resize" data-subplot="xy" x="164" y="370.5" width="672" height="20" style="fill: transparent; stroke-width: 0; pointer-events: all;"></rect><rect class="wdrag drag cursor-w-resize" data-subplot="xy" x="80" y="370.5" width="84" height="20" style="fill: transparent; stroke-width: 0; pointer-events: all;"></rect><rect class="edrag drag cursor-e-resize" data-subplot="xy" x="836" y="370.5" width="84" height="20" style="fill: transparent; stroke-width: 0; pointer-events: all;"></rect><rect class="nsdrag drag cursor-ns-resize" data-subplot="xy" x="59.5" y="127" width="20" height="216" style="fill: transparent; stroke-width: 0; pointer-events: all;"></rect><rect class="sdrag drag cursor-s-resize" data-subplot="xy" x="59.5" y="343" width="20" height="27" style="fill: transparent; stroke-width: 0; pointer-events: all;"></rect><rect class="ndrag drag cursor-n-resize" data-subplot="xy" x="59.5" y="100" width="20" height="27" style="fill: transparent; stroke-width: 0; pointer-events: all;"></rect></g></g><g class="layer-below"><g class="imagelayer"></g><g class="shapelayer"></g></g><g class="cartesianlayer"><g class="subplot xy"><g class="layer-subplot"><g class="shapelayer"></g><g class="imagelayer"></g></g><g class="gridlayer"><g class="x"><path class="xgrid crisp" d="M0,100v270" transform="translate(99.33,0)" style="stroke: rgb(238, 238, 238); stroke-opacity: 1; stroke-width: 1px;"></path><path class="xgrid crisp" d="M0,100v270" transform="translate(199.5,0)" style="stroke: rgb(238, 238, 238); stroke-opacity: 1; stroke-width: 1px;"></path><path class="xgrid crisp" d="M0,100v270" transform="translate(299.66999999999996,0)" style="stroke: rgb(238, 238, 238); stroke-opacity: 1; stroke-width: 1px;"></path><path class="xgrid crisp" d="M0,100v270" transform="translate(399.83,0)" style="stroke: rgb(238, 238, 238); stroke-opacity: 1; stroke-width: 1px;"></path><path class="xgrid crisp" d="M0,100v270" transform="translate(500,0)" style="stroke: rgb(238, 238, 238); stroke-opacity: 1; stroke-width: 1px;"></path><path class="xgrid crisp" d="M0,100v270" transform="translate(600.17,0)" style="stroke: rgb(238, 238, 238); stroke-opacity: 1; stroke-width: 1px;"></path><path class="xgrid crisp" d="M0,100v270" transform="translate(700.34,0)" style="stroke: rgb(238, 238, 238); stroke-opacity: 1; stroke-width: 1px;"></path><path class="xgrid crisp" d="M0,100v270" transform="translate(800.51,0)" style="stroke: rgb(238, 238, 238); stroke-opacity: 1; stroke-width: 1px;"></path><path class="xgrid crisp" d="M0,100v270" transform="translate(900.68,0)" style="stroke: rgb(238, 238, 238); stroke-opacity: 1; stroke-width: 1px;"></path></g><g class="y"><path class="ygrid crisp" d="M80,0h840" transform="translate(0,366.31)" style="stroke: rgb(238, 238, 238); stroke-opacity: 1; stroke-width: 1px;"></path><path class="ygrid crisp" d="M80,0h840" transform="translate(0,301.28999999999996)" style="stroke: rgb(238, 238, 238); stroke-opacity: 1; stroke-width: 1px;"></path><path class="ygrid crisp" d="M80,0h840" transform="translate(0,171.23000000000002)" style="stroke: rgb(238, 238, 238); stroke-opacity: 1; stroke-width: 1px;"></path><path class="ygrid crisp" d="M80,0h840" transform="translate(0,106.2)" style="stroke: rgb(238, 238, 238); stroke-opacity: 1; stroke-width: 1px;"></path></g></g><g class="zerolinelayer"><path class="yzl zl crisp" d="M80,0h840" transform="translate(0,236.26)" style="stroke: rgb(68, 68, 68); stroke-opacity: 1; stroke-width: 1px;"></path></g><path class="xlines-below"></path><path class="ylines-below"></path><g class="overlines-below"></g><g class="xaxislayer-below"></g><g class="yaxislayer-below"></g><g class="overaxes-below"></g><g class="plot" transform="translate(80, 100)" clip-path="url(#clipbd56dexyplot)"><g class="scatterlayer mlayer"><g class="trace scatter tracea7d4e8" style="stroke-miterlimit: 2; opacity: 1;"><g class="fills"></g><g class="errorbars"></g><g class="lines"><path class="js-line" d="M20,256.44L34.73,203.2L35.4,200.93L48.79,158.15L49.46,156.15L62.18,120.67L62.85,118.94L74.24,91.59L74.9,90.1L85.62,68.25L86.29,67L96.33,50.01L97,48.99L106.37,36.23L107.04,35.42L115.75,26.28L116.42,25.68L124.45,19.59L125.12,19.18L132.49,15.59L133.16,15.35L140.52,13.68L141.19,13.61L147.89,13.76L148.56,13.86L155.25,15.6L155.92,15.86L163.29,19.6L163.96,20.03L171.32,25.67L171.99,26.27L180.03,34.56L180.7,35.34L189.4,46.81L190.07,47.79L199.45,62.97L200.12,64.16L210.83,85.02L211.5,86.44L222.21,110.96L222.88,112.6L234.93,144.44L235.6,146.33L248.32,184.63L248.99,186.77L262.39,232.08L263.05,234.47L269.08,256.5L270.42,42.56L279.79,33.82L280.46,33.27L289.82,26.8L290.49,26.41L299.19,22.34L299.86,22.1L307.89,19.93L308.56,19.81L317.26,19.1L317.93,19.11L327.29,20.13L327.96,20.27L336.66,22.77L337.33,23.01L347.37,27.62L348.04,27.98L359.41,35.21L360.08,35.69L372.12,45.4L372.79,46L386.17,58.92L386.84,59.62L402.23,76.74L402.9,77.53L421.64,100.76L422.3,101.62L457.77,148.89L458.44,149.79L485.2,184.53L485.87,185.36L505.27,207.97L505.94,208.69L521.33,224.15L522,224.76L534.71,235.38L535.38,235.88L546.09,243.04L546.76,243.43L556.79,248.46L557.46,248.73L566.83,251.8L567.5,251.96L576.87,253.33L577.54,253.36L585.56,253.08L586.23,252.99L594.93,251.07L595.6,250.85L603.63,247.5L604.3,247.16L613,241.74L613.67,241.26L623.03,233.26L623.7,232.61L632.4,223.09L633.07,222.28L642.44,209.69L643.11,208.7L653.14,192.42L653.81,191.24L663.85,171.99L664.52,170.61L675.22,146.7L675.89,145.09L686.6,117.61L687.27,115.78L698.64,82.57L699.31,80.5L712.02,38.41L712.69,36.05L716.71,21.63L718.05,115.89L728.18,130.84L728.85,131.72L737.63,141.85L738.31,142.53L746.41,149.5L747.08,149.99L754.51,154.36L755.19,154.66L761.94,156.94L762.61,157.09L769.36,157.74L770.04,157.72L776.79,156.75L777.47,156.57L784.89,153.63L785.57,153.28L792.99,148.41L793.67,147.88L801.77,140.37L802.45,139.65L810.55,129.88L811.22,128.98L820,115.88" style="vector-effect: non-scaling-stroke; fill: none; stroke: rgb(31, 119, 180); stroke-opacity: 1; stroke-width: 2px; opacity: 1;"></path></g><g class="points"></g><g class="text"></g></g></g></g><g class="overplot"></g><path class="xlines-above crisp" d="M0,0" style="fill: none;"></path><path class="ylines-above crisp" d="M0,0" style="fill: none;"></path><g class="overlines-above"></g><g class="xaxislayer-above"><g class="xtick"><text text-anchor="middle" x="0" y="383" data-unformatted="1" data-math="N" transform="translate(99.33,0)" style="font-family: &quot;Open Sans&quot;, verdana, arial, sans-serif; font-size: 12px; fill: rgb(68, 68, 68); fill-opacity: 1; white-space: pre;">1</text></g><g class="xtick"><text text-anchor="middle" x="0" y="383" data-unformatted="1.5" data-math="N" transform="translate(199.5,0)" style="font-family: &quot;Open Sans&quot;, verdana, arial, sans-serif; font-size: 12px; fill: rgb(68, 68, 68); fill-opacity: 1; white-space: pre;">1.5</text></g><g class="xtick"><text text-anchor="middle" x="0" y="383" data-unformatted="2" data-math="N" transform="translate(299.66999999999996,0)" style="font-family: &quot;Open Sans&quot;, verdana, arial, sans-serif; font-size: 12px; fill: rgb(68, 68, 68); fill-opacity: 1; white-space: pre;">2</text></g><g class="xtick"><text text-anchor="middle" x="0" y="383" data-unformatted="2.5" data-math="N" transform="translate(399.83,0)" style="font-family: &quot;Open Sans&quot;, verdana, arial, sans-serif; font-size: 12px; fill: rgb(68, 68, 68); fill-opacity: 1; white-space: pre;">2.5</text></g><g class="xtick"><text text-anchor="middle" x="0" y="383" data-unformatted="3" data-math="N" transform="translate(500,0)" style="font-family: &quot;Open Sans&quot;, verdana, arial, sans-serif; font-size: 12px; fill: rgb(68, 68, 68); fill-opacity: 1; white-space: pre;">3</text></g><g class="xtick"><text text-anchor="middle" x="0" y="383" data-unformatted="3.5" data-math="N" transform="translate(600.17,0)" style="font-family: &quot;Open Sans&quot;, verdana, arial, sans-serif; font-size: 12px; fill: rgb(68, 68, 68); fill-opacity: 1; white-space: pre;">3.5</text></g><g class="xtick"><text text-anchor="middle" x="0" y="383" data-unformatted="4" data-math="N" transform="translate(700.34,0)" style="font-family: &quot;Open Sans&quot;, verdana, arial, sans-serif; font-size: 12px; fill: rgb(68, 68, 68); fill-opacity: 1; white-space: pre;">4</text></g><g class="xtick"><text text-anchor="middle" x="0" y="383" data-unformatted="4.5" data-math="N" transform="translate(800.51,0)" style="font-family: &quot;Open Sans&quot;, verdana, arial, sans-serif; font-size: 12px; fill: rgb(68, 68, 68); fill-opacity: 1; white-space: pre;">4.5</text></g><g class="xtick"><text text-anchor="middle" x="0" y="383" data-unformatted="5" data-math="N" transform="translate(900.68,0)" style="font-family: &quot;Open Sans&quot;, verdana, arial, sans-serif; font-size: 12px; fill: rgb(68, 68, 68); fill-opacity: 1; white-space: pre;">5</text></g></g><g class="yaxislayer-above"><g class="ytick"><text text-anchor="end" x="79" y="4.199999999999999" data-unformatted="−0.1" data-math="N" transform="translate(0,366.31)" style="font-family: &quot;Open Sans&quot;, verdana, arial, sans-serif; font-size: 12px; fill: rgb(68, 68, 68); fill-opacity: 1; white-space: pre;">−0.1</text></g><g class="ytick"><text text-anchor="end" x="79" y="4.199999999999999" data-unformatted="−0.05" data-math="N" transform="translate(0,301.28999999999996)" style="font-family: &quot;Open Sans&quot;, verdana, arial, sans-serif; font-size: 12px; fill: rgb(68, 68, 68); fill-opacity: 1; white-space: pre;">−0.05</text></g><g class="ytick"><text text-anchor="end" x="79" y="4.199999999999999" data-unformatted="0" data-math="N" transform="translate(0,236.26)" style="font-family: &quot;Open Sans&quot;, verdana, arial, sans-serif; font-size: 12px; fill: rgb(68, 68, 68); fill-opacity: 1; white-space: pre;">0</text></g><g class="ytick"><text text-anchor="end" x="79" y="4.199999999999999" data-unformatted="0.05" data-math="N" transform="translate(0,171.23000000000002)" style="font-family: &quot;Open Sans&quot;, verdana, arial, sans-serif; font-size: 12px; fill: rgb(68, 68, 68); fill-opacity: 1; white-space: pre;">0.05</text></g><g class="ytick"><text text-anchor="end" x="79" y="4.199999999999999" data-unformatted="0.1" data-math="N" transform="translate(0,106.2)" style="font-family: &quot;Open Sans&quot;, verdana, arial, sans-serif; font-size: 12px; fill: rgb(68, 68, 68); fill-opacity: 1; white-space: pre;">0.1</text></g></g><g class="overaxes-above"></g></g></g><g class="polarlayer"></g><g class="ternarylayer"></g><g class="geolayer"></g><g class="pielayer"></g><g class="glimages"></g></svg>